<svg width="46" height="46" viewBox="0 0 46 46" fill="none" xmlns="http://www.w3.org/2000/svg">
<path d="M16.3965 27.269V34.019H29.8965V27.269H45.6465V43.019C45.6465 43.6158 45.4094 44.1881 44.9875 44.61C44.5655 45.032 43.9932 45.269 43.3965 45.269H2.89648C2.29975 45.269 1.72745 45.032 1.30549 44.61C0.883537 44.1881 0.646484 43.6158 0.646484 43.019V27.269H16.3965ZM20.8965 22.769H25.3965V29.519H20.8965V22.769ZM11.8965 9.26904V2.51904C11.8965 1.92231 12.1335 1.35001 12.5555 0.928053C12.9775 0.506096 13.5497 0.269043 14.1465 0.269043H32.1465C32.7432 0.269043 33.3155 0.506096 33.7375 0.928053C34.1594 1.35001 34.3965 1.92231 34.3965 2.51904V9.26904H43.3965C43.9932 9.26904 44.5655 9.5061 44.9875 9.92805C45.4094 10.35 45.6465 10.9223 45.6465 11.519V22.769H29.8965V18.269H16.3965V22.769H0.646484V11.519C0.646484 10.9223 0.883537 10.35 1.30549 9.92805C1.72745 9.5061 2.29975 9.26904 2.89648 9.26904H11.8965ZM16.3965 4.76904V9.26904H29.8965V4.76904H16.3965Z" fill="#1A1F4C"/>
</svg>
