<svg width="21" height="22" viewBox="0 0 21 22" fill="none" xmlns="http://www.w3.org/2000/svg">
<path d="M20.6172 18.0947H0.617188V16.0947H1.61719V9.12573C1.61719 4.13773 5.64719 0.0947266 10.6172 0.0947266C15.5872 0.0947266 19.6172 4.13773 19.6172 9.12573V16.0947H20.6172V18.0947ZM3.61719 16.0947H17.6172V9.12573C17.6172 5.24273 14.4832 2.09473 10.6172 2.09473C6.75119 2.09473 3.61719 5.24273 3.61719 9.12573V16.0947ZM8.11719 19.0947H13.1172C13.1172 19.7578 12.8538 20.3937 12.385 20.8625C11.9161 21.3313 11.2802 21.5947 10.6172 21.5947C9.95415 21.5947 9.31826 21.3313 8.84942 20.8625C8.38058 20.3937 8.11719 19.7578 8.11719 19.0947Z" fill="white"/>
</svg>
