<svg width="46" height="51" viewBox="0 0 46 51" fill="none" xmlns="http://www.w3.org/2000/svg">
<path d="M35.5 35.561H40.5V5.56104H15.5V10.561H35.5V35.561ZM35.5 40.561V48.061C35.5 49.441 34.375 50.561 32.9825 50.561H3.0175C2.68782 50.563 2.36099 50.4998 2.05581 50.3751C1.75062 50.2504 1.47308 50.0666 1.23915 49.8343C1.00521 49.602 0.819482 49.3257 0.692636 49.0214C0.565789 48.7171 0.500323 48.3907 0.5 48.061L0.5075 13.061C0.5075 11.681 1.6325 10.561 3.025 10.561H10.5V3.06104C10.5 2.39799 10.7634 1.76211 11.2322 1.29327C11.7011 0.824427 12.337 0.561035 13 0.561035H43C43.663 0.561035 44.2989 0.824427 44.7678 1.29327C45.2366 1.76211 45.5 2.39799 45.5 3.06104V38.061C45.5 38.7241 45.2366 39.36 44.7678 39.8288C44.2989 40.2976 43.663 40.561 43 40.561H35.5ZM10.5 35.561V40.561H15.5V43.061H20.5V40.561H21.75C23.4076 40.561 24.9973 39.9026 26.1694 38.7305C27.3415 37.5583 28 35.9686 28 34.311C28 32.6534 27.3415 31.0637 26.1694 29.8916C24.9973 28.7195 23.4076 28.061 21.75 28.061H14.25C13.9185 28.061 13.6005 27.9293 13.3661 27.6949C13.1317 27.4605 13 27.1426 13 26.811C13 26.4795 13.1317 26.1616 13.3661 25.9272C13.6005 25.6927 13.9185 25.561 14.25 25.561H25.5V20.561H20.5V18.061H15.5V20.561H14.25C12.5924 20.561 11.0027 21.2195 9.83058 22.3916C8.65848 23.5637 8 25.1534 8 26.811C8 28.4686 8.65848 30.0583 9.83058 31.2305C11.0027 32.4026 12.5924 33.061 14.25 33.061H21.75C22.0815 33.061 22.3995 33.1927 22.6339 33.4272C22.8683 33.6616 23 33.9795 23 34.311C23 34.6426 22.8683 34.9605 22.6339 35.1949C22.3995 35.4293 22.0815 35.561 21.75 35.561H10.5Z" fill="#1A1F4C"/>
</svg>
