<svg width="46" height="46" viewBox="0 0 46 46" fill="none" xmlns="http://www.w3.org/2000/svg">
	<path d="M22.6465 45.562C10.2197 45.562 0.146484 35.4888 0.146484 23.062C0.146484 10.6353 10.2197 0.562012 22.6465 0.562012C35.0732 0.562012 45.1465 10.6353 45.1465 23.062C45.1465 35.4888 35.0732 45.562 22.6465 45.562ZM14.7715 27.562V32.062H20.3965V36.562H24.8965V32.062H27.1465C28.6383 32.062 30.0691 31.4694 31.124 30.4145C32.1789 29.3596 32.7715 27.9289 32.7715 26.437C32.7715 24.9452 32.1789 23.5144 31.124 22.4595C30.0691 21.4046 28.6383 20.812 27.1465 20.812H18.1465C17.8481 20.812 17.562 20.6935 17.351 20.4825C17.14 20.2715 17.0215 19.9854 17.0215 19.687C17.0215 19.3886 17.14 19.1025 17.351 18.8915C17.562 18.6805 17.8481 18.562 18.1465 18.562H30.5215V14.062H24.8965V9.56201H20.3965V14.062H18.1465C16.6546 14.062 15.2239 14.6546 14.169 15.7095C13.1141 16.7644 12.5215 18.1952 12.5215 19.687C12.5215 21.1789 13.1141 22.6096 14.169 23.6645C15.2239 24.7194 16.6546 25.312 18.1465 25.312H27.1465C27.4449 25.312 27.731 25.4305 27.942 25.6415C28.153 25.8525 28.2715 26.1386 28.2715 26.437C28.2715 26.7354 28.153 27.0215 27.942 27.2325C27.731 27.4435 27.4449 27.562 27.1465 27.562H14.7715Z" fill="#1A1F4C" />
</svg>
