<?xml version="1.0"?>
<svg xmlns="http://www.w3.org/2000/svg" xmlns:xlink="http://www.w3.org/1999/xlink" xmlns:svgjs="http://svgjs.com/svgjs" version="1.1" width="512" height="512" x="0" y="0" viewBox="0 0 64 64" style="enable-background:new 0 0 512 512" xml:space="preserve"><g><g xmlns="http://www.w3.org/2000/svg" id="Interest_rate" data-name="Interest rate"><path d="M61,47H59.618l.432-.864A9.05,9.05,0,0,0,61,42.111V32.377a8.983,8.983,0,0,0-.518-3.01L52.016,5.521A4,4,0,1,0,44.3,7.652l3.853,11.726a3.991,3.991,0,0,0-3.719,2.942L41.291,34.052a12.936,12.936,0,0,0,1.193,9.678L44.3,47H43a1,1,0,0,0-1,1v6a1,1,0,0,0,1,1h1v6a1,1,0,0,0,1,1H59a1,1,0,0,0,1-1V55h1a1,1,0,0,0,1-1V48A1,1,0,0,0,61,47ZM44.232,42.758a10.948,10.948,0,0,1-1.01-8.189l3.144-11.731a2,2,0,0,1,2.808-1.28l.015.007a2,2,0,0,1,1.04,2.309l-2.353,8.783a1,1,0,0,0,1.932.517l2.353-8.783a3.941,3.941,0,0,0-1.694-4.376L46.216,7.08A1.991,1.991,0,0,1,48.15,4.56a2.033,2.033,0,0,1,1.957,1.554L58.6,30.036a7,7,0,0,1,.4,2.341v9.734a7.031,7.031,0,0,1-.739,3.131L57.382,47H46.588ZM58,60H46V55H58Zm2-7H44V49H60Z" fill="#ffce70" data-original="#000000" style=""/><path d="M40.071,19a1,1,0,0,0,1.694-.542l1.414-8.486a1,1,0,0,0-1.151-1.151l-8.486,1.414A1,1,0,0,0,33,11.929l1.441,1.441L22.66,26.1a1,1,0,0,0,.027,1.386l2.828,2.828a1,1,0,0,0,.707.293h.019a1,1,0,0,0,.715-.32L38.685,17.613Zm-2.148-3.508L26.194,28.165l-1.413-1.414L36.562,14.022a1,1,0,0,0-.026-1.386l-.748-.747,5.188-.865-.865,5.188-.747-.748a.973.973,0,0,0-.727-.293A1,1,0,0,0,37.923,15.492Z" fill="#ffce70" data-original="#000000" style=""/><path d="M22.709,34.052,19.566,22.32a3.992,3.992,0,0,0-3.719-2.943L19.716,7.6a4,4,0,0,0-7.708-2.155L3.518,29.368A8.973,8.973,0,0,0,3,32.377v9.734a9.05,9.05,0,0,0,.95,4.025L4.382,47H3a1,1,0,0,0-1,1v6a1,1,0,0,0,1,1H4v6a1,1,0,0,0,1,1H19a1,1,0,0,0,1-1V55h1a1,1,0,0,0,1-1V48a1,1,0,0,0-1-1H19.7l1.817-3.27A12.936,12.936,0,0,0,22.709,34.052ZM18,60H6V55H18Zm2-7H4V49H20Zm-.232-10.242L17.412,47H6.618l-.879-1.758A7.031,7.031,0,0,1,5,42.111V32.377a7,7,0,0,1,.4-2.341l8.513-24a2,2,0,0,1,3.669-.478A1.969,1.969,0,0,1,17.8,7.028L13.533,20.015a3.941,3.941,0,0,0-1.694,4.376l2.353,8.783a1,1,0,0,0,1.932-.517l-2.353-8.783a2,2,0,0,1,1.04-2.309l.015-.007a1.978,1.978,0,0,1,.359-.134,2,2,0,0,1,2.449,1.414l3.144,11.731A10.948,10.948,0,0,1,19.768,42.758Z" fill="#ffce70" data-original="#000000" style=""/><path d="M38,22a4,4,0,1,0,4,4A4,4,0,0,0,38,22Zm0,6a2,2,0,1,1,2-2A2,2,0,0,1,38,28Z" fill="#ffce70" data-original="#000000" style=""/><path d="M26,19a4,4,0,1,0-4-4A4,4,0,0,0,26,19Zm0-6a2,2,0,1,1-2,2A2,2,0,0,1,26,13Z" fill="#ffce70" data-original="#000000" style=""/></g></g></svg>
