<svg width="187" height="250" viewBox="0 0 187 250" fill="none" xmlns="http://www.w3.org/2000/svg">
<path d="M-0.832902 189.602L-0.878657 82.72C-0.879411 80.9596 0.503171 79.577 2.13789 79.7035L108.894 79.8749C110.654 79.8757 112.038 81.2595 111.913 82.8941L111.959 189.524C111.96 191.285 110.577 192.667 108.942 192.541L2.31193 192.495C0.551523 192.495 -0.832256 191.111 -0.832902 189.602Z" stroke="#FFAF00" stroke-width="1.7707" stroke-miterlimit="10"/>
<path d="M127.877 66.1761C128.572 66.8708 129.698 66.8713 130.392 66.1771C131.086 65.483 131.086 64.357 130.391 63.6623C129.696 62.9675 128.57 62.967 127.876 63.6612C127.182 64.3554 127.182 65.4813 127.877 66.1761Z" fill="#010101"/>
<path d="M129.146 94.3427C128.14 94.3422 127.386 93.5874 127.385 92.5815C127.385 91.5755 128.139 90.8214 129.145 90.8218C130.151 90.8223 130.906 91.5771 130.906 92.583C130.906 93.589 130.152 94.3431 129.146 94.3427Z" fill="#010101"/>
<path d="M129.158 122.008C128.152 122.007 127.397 121.252 127.397 120.247C127.396 119.241 128.151 118.486 129.157 118.487C130.163 118.487 130.917 119.242 130.918 120.248C130.918 121.254 130.164 122.008 129.158 122.008Z" fill="#010101"/>
<path d="M129.17 149.671C128.164 149.67 127.409 148.916 127.409 147.91C127.408 146.904 128.162 146.15 129.168 146.15C130.174 146.15 130.929 146.905 130.929 147.911C130.93 148.917 130.176 149.671 129.17 149.671Z" fill="#010101"/>
<path d="M127.926 176.829C128.621 177.524 129.747 177.525 130.441 176.83C131.135 176.136 131.134 175.01 130.44 174.316C129.745 173.621 128.619 173.62 127.925 174.315C127.231 175.009 127.231 176.135 127.926 176.829Z" fill="#010101"/>
<path d="M104.361 66.5458C103.355 66.5454 102.6 65.7906 102.6 64.7846C102.6 63.7787 103.354 63.0245 104.36 63.025C105.366 63.0254 106.12 63.7802 106.121 64.7861C106.121 65.7921 105.367 66.5462 104.361 66.5458Z" fill="#010101"/>
<path d="M103.115 93.7054C103.81 94.4001 104.936 94.4006 105.63 93.7064C106.324 93.0123 106.324 91.8863 105.629 91.1916C104.934 90.4968 103.808 90.4963 103.114 91.1905C102.42 91.8847 102.421 93.0106 103.115 93.7054Z" fill="#010101"/>
<path d="M103.127 121.37C103.822 122.065 104.948 122.066 105.642 121.371C106.336 120.677 106.336 119.551 105.641 118.857C104.946 118.162 103.82 118.161 103.126 118.856C102.432 119.55 102.432 120.676 103.127 121.37Z" fill="#010101"/>
<path d="M103.139 149.033C103.833 149.728 104.959 149.729 105.654 149.035C106.348 148.34 106.347 147.214 105.653 146.52C104.958 145.825 103.832 145.824 103.138 146.519C102.443 147.213 102.444 148.339 103.139 149.033Z" fill="#010101"/>
<path d="M103.152 176.697C103.847 177.391 104.973 177.392 105.667 176.698C106.361 176.003 106.361 174.878 105.666 174.183C104.971 173.488 103.845 173.488 103.151 174.182C102.457 174.876 102.458 176.002 103.152 176.697Z" fill="#010101"/>
<path d="M79.5936 66.661C78.5877 66.6606 77.8329 65.9058 77.8325 64.8999C77.832 63.8939 78.5862 63.1398 79.5921 63.1402C80.5981 63.1406 81.3529 63.8954 81.3533 64.9014C81.4794 65.7816 80.5996 66.6614 79.5936 66.661Z" fill="#010101"/>
<path d="M78.3477 93.8206C79.0425 94.5153 80.1684 94.5158 80.8626 93.8217C81.5567 93.1275 81.5562 92.0016 80.8615 91.3068C80.1667 90.612 79.0408 90.6116 78.3466 91.3057C77.6525 91.9999 77.6529 93.1258 78.3477 93.8206Z" fill="#010101"/>
<path d="M78.3594 121.486C79.0542 122.18 80.1801 122.181 80.8743 121.487C81.5684 120.793 81.568 119.667 80.8732 118.972C80.1784 118.277 79.0525 118.277 78.3583 118.971C77.6642 119.665 77.6647 120.791 78.3594 121.486Z" fill="#010101"/>
<path d="M78.3711 149.149C79.0659 149.843 80.1918 149.844 80.886 149.15C81.5802 148.456 81.5797 147.33 80.8849 146.635C80.1902 145.94 79.0642 145.94 78.3701 146.634C77.6759 147.328 77.6764 148.454 78.3711 149.149Z" fill="#010101"/>
<path d="M79.6424 177.315C78.6365 177.315 77.8817 176.56 77.8813 175.554C77.8809 174.548 78.635 173.794 79.6409 173.794C80.6469 173.795 81.4017 174.55 81.4021 175.556C81.4025 176.562 80.6484 177.316 79.6424 177.315Z" fill="#010101"/>
<path d="M54.9471 66.6513C53.9412 66.6508 53.1864 65.896 53.186 64.8901C53.1855 63.8841 53.9397 63.13 54.9456 63.1304C55.9516 63.1309 56.7064 63.8857 56.7068 64.8916C56.7072 65.8975 55.9531 66.6517 54.9471 66.6513Z" fill="#010101"/>
<path d="M54.9589 94.3143C53.9529 94.3139 53.1981 93.5591 53.1977 92.5532C53.1973 91.5472 53.9514 90.7931 54.9574 90.7935C55.9633 90.794 56.7181 91.5487 56.7185 92.5547C56.7189 93.5606 55.9648 94.3148 54.9589 94.3143Z" fill="#010101"/>
<path d="M53.7129 121.476C54.4077 122.171 55.5336 122.171 56.2278 121.477C56.922 120.783 56.9215 119.657 56.2267 118.962C55.532 118.267 54.406 118.267 53.7119 118.961C53.0177 119.655 53.0182 120.781 53.7129 121.476Z" fill="#010101"/>
<path d="M54.9823 149.642C53.9764 149.642 53.2216 148.887 53.2211 147.881C53.2207 146.875 53.9748 146.121 54.9808 146.122C55.9867 146.122 56.7415 146.877 56.742 147.883C56.7424 148.889 55.9883 149.643 54.9823 149.642Z" fill="#010101"/>
<path d="M54.996 177.306C53.99 177.305 53.2352 176.55 53.2348 175.544C53.2344 174.538 53.9885 173.784 54.9945 173.785C56.0004 173.785 56.7552 174.54 56.7556 175.546C56.7561 176.552 56.0019 177.306 54.996 177.306Z" fill="#010101"/>
<path d="M30.1757 66.5106C29.1697 66.5102 28.4149 65.7554 28.4145 64.7495C28.4141 63.7435 29.1682 62.9894 30.1742 62.9898C31.1801 62.9902 31.9349 63.745 31.9353 64.751C31.9357 65.7569 31.1816 66.5111 30.1757 66.5106Z" fill="#010101"/>
<path d="M28.9297 93.6702C29.6245 94.365 30.7504 94.3654 31.4446 93.6713C32.1388 92.9771 32.1383 91.8512 31.4435 91.1564C30.7488 90.4617 29.6228 90.4612 28.9287 91.1553C28.2345 91.8495 28.235 92.9754 28.9297 93.6702Z" fill="#010101"/>
<path d="M28.9414 121.335C29.6362 122.03 30.7622 122.03 31.4563 121.336C32.1505 120.642 32.15 119.516 31.4552 118.821C30.7605 118.127 29.6345 118.126 28.9404 118.82C28.2462 119.515 28.2467 120.64 28.9414 121.335Z" fill="#010101"/>
<path d="M28.9532 148.998C29.6479 149.693 30.7739 149.694 31.468 148.999C32.1622 148.305 32.1617 147.179 31.467 146.485C30.7722 145.79 29.6463 145.789 28.9521 146.483C28.2579 147.178 28.2584 148.304 28.9532 148.998Z" fill="#010101"/>
<path d="M30.0956 177.29C29.0896 177.289 28.3348 176.535 28.3344 175.529C28.334 174.523 29.0881 173.769 30.0941 173.769C31.1 173.77 31.8548 174.524 31.8552 175.53C31.9814 176.411 31.1015 177.29 30.0956 177.29Z" fill="#010101"/>
<path d="M5.40417 66.6278C4.39823 66.6274 3.64344 65.8726 3.64301 64.8667C3.64258 63.8607 4.39672 63.1066 5.40267 63.107C6.40861 63.1074 7.1634 63.8622 7.16383 64.8682C7.28995 65.7484 6.41012 66.6282 5.40417 66.6278Z" fill="#010101"/>
<path d="M4.15824 93.7874C4.853 94.4821 5.97895 94.4826 6.67311 93.7885C7.36728 93.0943 7.36679 91.9684 6.67203 91.2736C5.97728 90.5788 4.85133 90.5784 4.15717 91.2725C3.463 91.9667 3.46349 93.0926 4.15824 93.7874Z" fill="#010101"/>
<path d="M4.16996 121.452C4.86472 122.147 5.99067 122.148 6.68483 121.454C7.37899 120.759 7.37851 119.633 6.68375 118.939C5.98899 118.244 4.86305 118.243 4.16889 118.938C3.47472 119.632 3.4752 120.758 4.16996 121.452Z" fill="#010101"/>
<path d="M4.18168 149.116C4.87644 149.81 6.00238 149.811 6.69655 149.117C7.39071 148.422 7.39023 147.296 6.69547 146.602C6.00071 145.907 4.87477 145.906 4.1806 146.601C3.48644 147.295 3.48692 148.421 4.18168 149.116Z" fill="#010101"/>
<path d="M5.453 177.282C4.44706 177.282 3.69227 176.527 3.69184 175.521C3.69141 174.515 4.44555 173.761 5.45149 173.761C6.45744 173.762 7.21223 174.517 7.21266 175.522C7.21309 176.528 6.45895 177.283 5.453 177.282Z" fill="#010101"/>
</svg>
