<svg width="51" height="46" viewBox="0 0 51 46" fill="none" xmlns="http://www.w3.org/2000/svg">
<path d="M50.5 25.3212V42.8237C50.5 43.4868 50.2366 44.1227 49.7678 44.5915C49.2989 45.0603 48.663 45.3237 48 45.3237H28V25.3212H50.5ZM23 25.3212V45.3237H3C2.33696 45.3237 1.70107 45.0603 1.23223 44.5915C0.763392 44.1227 0.5 43.4868 0.5 42.8237V25.3212H23ZM23 0.32373V20.3212H0.5V2.82373C0.5 2.16069 0.763392 1.5248 1.23223 1.05596C1.70107 0.587122 2.33696 0.32373 3 0.32373H23ZM48 0.32373C48.663 0.32373 49.2989 0.587122 49.7678 1.05596C50.2366 1.5248 50.5 2.16069 50.5 2.82373V20.3212H28V0.32373H48Z" fill="#1A1F4C"/>
</svg>
